<svg width="218" height="215" viewBox="0 0 218 215" fill="none" xmlns="http://www.w3.org/2000/svg">
<path d="M120.772 186.817C117.854 185.732 112.947 185.632 108.797 189.009C104.648 185.632 99.7405 185.732 96.8231 186.817C94.3844 187.725 92.4718 188.331 88.8789 188.301C92.4385 195.722 100.023 200.84 108.797 200.84C117.572 200.84 125.156 195.722 128.716 188.301C125.123 188.331 123.21 187.725 120.772 186.817Z" fill="#D6C278"/>
<path d="M108.796 0.359375C48.7448 0.359375 0.0585938 49.0429 0.0585938 109.097C0.0585938 160.574 35.8349 203.699 83.879 214.965C45.7001 194.54 30.1329 147.705 48.5428 108.474C51.5184 123.967 61.6188 137.771 76.7099 144.934C57.0267 98.8972 71.5199 44.7774 112.14 14.8471C104.149 42.2087 116.422 67.2452 142.749 86.1478C172.862 107.766 174.135 151.879 147.559 175.726C158.117 173.268 167.937 167.455 175.273 158.556C170.747 181.873 156.126 202.971 133.708 214.965C181.755 203.699 217.529 160.574 217.529 109.097C217.529 49.0429 168.848 0.359375 108.796 0.359375Z" fill="#D6C278"/>
</svg>
